<?xml version="1.0" encoding="UTF-8" standalone="no"?>
<!-- Created with Inkscape (http://www.inkscape.org/) -->

<svg
   width="390mm"
   height="150mm"
   viewBox="0 0 390 150"
   version="1.1"
   id="svg13237"
   inkscape:version="1.1 (c68e22c387, 2021-05-23)"
   sodipodi:docname="logo.svg"
   xmlns:inkscape="http://www.inkscape.org/namespaces/inkscape"
   xmlns:sodipodi="http://sodipodi.sourceforge.net/DTD/sodipodi-0.dtd"
   xmlns="http://www.w3.org/2000/svg"
   xmlns:svg="http://www.w3.org/2000/svg">
  <sodipodi:namedview
     id="namedview13239"
     pagecolor="#ffffff"
     bordercolor="#666666"
     borderopacity="1.0"
     inkscape:pageshadow="2"
     inkscape:pageopacity="0.0"
     inkscape:pagecheckerboard="0"
     inkscape:document-units="mm"
     showgrid="false"
     height="150mm"
     inkscape:zoom="0.087"
     inkscape:cx="3028.7356"
     inkscape:cy="408.04598"
     inkscape:window-width="1366"
     inkscape:window-height="705"
     inkscape:window-x="-8"
     inkscape:window-y="-8"
     inkscape:window-maximized="1"
     inkscape:current-layer="layer1"
     width="390mm" />
  <defs
     id="defs13234" />
  <g
     inkscape:label="Слой 1"
     inkscape:groupmode="layer"
     id="layer1">
    <g
       id="g54"
       transform="matrix(0.26458333,0,0,0.26458333,-14.657386,20.267746)">
      <path
         d="m 143.408,0 c -2.209,0 -4,1.791 -4,4 V 107.362 H 126.141 V 4 c 0,-2.209 -1.791,-4 -4,-4 -2.209,0 -4,1.791 -4,4 V 107.362 H 105.452 V 4 c 0,-2.209 -1.791,-4 -4,-4 -2.209,0 -4,1.791 -4,4 V 107.362 H 84.185 V 4 c 0,-2.209 -1.791,-4 -4,-4 -2.209,0 -4,1.791 -4,4 v 108.816 c 0,18.283 13.852,33.386 31.611,35.381 v 141.391 c -9.099,1.718 -16.205,9.198 -17.2,18.731 l -7.752,74.349 c -0.854,8.188 1.817,16.39 7.328,22.505 5.511,6.115 13.393,9.622 21.624,9.622 8.232,0 16.113,-3.507 21.624,-9.622 5.51,-6.115 8.181,-14.318 7.328,-22.505 l -7.752,-74.349 c -0.995,-9.532 -8.101,-17.013 -17.2,-18.731 v -141.39 c 17.759,-1.995 31.612,-17.098 31.612,-35.381 V 4 c 0,-2.209 -1.791,-4 -4,-4 z m -15.931,399.818 c -3.996,4.434 -9.712,6.978 -15.681,6.978 v 0 c -5.969,0 -11.685,-2.543 -15.681,-6.978 -3.188,-3.538 -5.061,-8.041 -5.375,-12.732 h 42.112 c -0.314,4.691 -2.187,9.194 -5.375,12.732 z m -2.438,-90.669 7.292,69.937 h -41.07 l 7.292,-69.937 c 0.71,-6.804 6.403,-11.934 13.243,-11.934 6.84,0 12.534,5.131 13.243,11.934 z M 111.796,140.428 v 0 c -14.368,0 -26.207,-11.029 -27.496,-25.066 h 54.991 c -1.288,14.037 -13.127,25.066 -27.495,25.066 z"
         id="path50" />
      <path
         d="m 338.611,83.688 c 0,-21.979 -5.003,-42.704 -14.087,-58.355 C 315.042,8.997 302.199,0 288.359,0 c -13.84,0 -26.683,8.997 -36.165,25.332 -9.084,15.651 -14.087,36.376 -14.087,58.355 0,39.39 16.797,62.681 46.252,64.597 v 141.304 c -9.099,1.718 -16.205,9.198 -17.2,18.731 l -7.752,74.349 c -0.853,8.188 1.817,16.39 7.328,22.505 5.511,6.115 13.393,9.622 21.624,9.622 8.232,0 16.114,-3.507 21.624,-9.622 5.51,-6.115 8.181,-14.318 7.328,-22.505 l -7.753,-74.349 c -0.994,-9.533 -8.1,-17.014 -17.2,-18.731 V 148.284 c 29.456,-1.915 46.253,-25.207 46.253,-64.596 z m -92.504,0 c 0,-20.591 4.619,-39.889 13.006,-54.34 C 267.103,15.582 277.49,8 288.359,8 c 10.869,0 21.255,7.582 29.246,21.348 8.387,14.451 13.006,33.749 13.006,54.34 0,36.59 -15.005,56.741 -42.252,56.741 -27.247,-0.001 -42.252,-20.152 -42.252,-56.741 z m 57.933,316.13 c -3.996,4.435 -9.712,6.978 -15.682,6.978 -5.969,0 -11.685,-2.543 -15.681,-6.978 -3.188,-3.538 -5.061,-8.041 -5.375,-12.732 h 42.112 c -0.313,4.691 -2.185,9.194 -5.374,12.732 z m -2.438,-90.669 7.292,69.937 h -41.07 l 7.292,-69.937 c 0.709,-6.804 6.403,-11.934 13.243,-11.934 6.84,0 12.534,5.131 13.243,11.934 z"
         id="path52" />
    </g>
    <text
       xml:space="preserve"
       style="font-size:45.8611px;line-height:1.25;font-family:sans-serif;white-space:pre;inline-size:0;stroke-width:0.264583"
       x="76.200005"
       y="83.608315"
       id="text15419"
       transform="translate(3.0411878,6.0823755)"><tspan
         id="tspan15417"
         style="font-style:normal;font-variant:normal;font-weight:normal;font-stretch:normal;font-size:45.8611px;font-family:'Intro Demo Cond';-inkscape-font-specification:'Intro Demo Cond';fill:#aa4400;stroke-width:0.264583"
         x="76.200005"
         y="83.608315">SpoonForkify</tspan></text>
  </g>
</svg>
